# xmcd
# Track frame offsets:
# 150
# 11190
# 20307
# 31975
# 43125
# 53637
# 65877
# 74737
# 88102
# 99925
# 111032
# 123035
#
# Disc length: 1833 seconds
# Revision: 0
# Processed by: cddbd v1.4PL0 Copyright (c) Steve Scherf et al.
# Submitted via: VisiTrax 2.9.5.180 - For more info visit www.synapsa.com
#
DISCID=a007270c
DTITLE=Cowboy Copas - Opry Star spotlight on Cowboy Copas
DYEAR=1900
DGENRE=
TTITLE0=Sixteen fathoms
TTITLE1=Now that you're gone
TTITLE2=Sweet lips
TTITLE3=Mental cruelty
TTITLE4=Wings of a dove
TTITLE5=Flat top pickin'
TTITLE6=The rebel Johnny Yuma
TTITLE7=That's all I can remember
TTITLE8=Loose talk
TTITLE9=Sleepy eyed John
TTITLE10=The twenty fourth hour
TTITLE11=A satisfied mind
EXTD=
EXTT0=
EXTT1=
EXTT2=
EXTT3=
EXTT4=
EXTT5=
EXTT6=
EXTT7=
EXTT8=
EXTT9=
EXTT10=
EXTT11=
PLAYORDER=
